# xmcd
#
# Track frame offsets: 
#        182
#        15595
#        29307
#        44957
#        59590
#        71945
#        87502
#        102037
#        117732
#        131757
#        146582
#        160895
#        174832
#        188557
#        203045
#        217395
#        230995
#        244582
#        273470
#        286607
#        300745
#        314295
#
# Disc length: 4413 seconds
#
# Revision: 4
# Processed by: cddbd v1.5.1PL2 Copyright (c) Steve Scherf et al.
# Submitted via: ExactAudioCopy v0.95b3
#
DISCID=54113b16
DTITLE=Bessie Smith - Bessie Smith - The Greatest Blues Singer in the 
DTITLE=World
DYEAR=1990
DGENRE=Blues
TTITLE0=Down Hearted Blues
TTITLE1=Gulf Coast Blues
TTITLE2=Nobody in Town Can Bake a Sweet Jelly Roll Like Mine
TTITLE3=Jail House Blues
TTITLE4=Graveyard Dream Blues
TTITLE5=Cemetery Blues
TTITLE6=Frosty Morning Blues
TTITLE7=Haunted House Blues
TTITLE8=Easy Come, Easy Go Blues
TTITLE9=Follow The Deal On Down
TTITLE10=Sinful Blues
TTITLE11=Lady Luck Blues
TTITLE12=Reckless Blues
TTITLE13=Cold in Hand Blues
TTITLE14=Mean Old Bedbug Blues
TTITLE15=The Yellow Dog Blues
TTITLE16=Sweet Mistreater
TTITLE17=Empty Bed Blues
TTITLE18=Blue Spirit Blues
TTITLE19=Black Mountain Blues
TTITLE20=In the House Blues
TTITLE21=Nashville Woman's Blues
EXTD=
EXTT0=
EXTT1=
EXTT2=
EXTT3=
EXTT4=
EXTT5=
EXTT6=
EXTT7=
EXTT8=
EXTT9=
EXTT10=
EXTT11=
EXTT12=
EXTT13=
EXTT14=
EXTT15=
EXTT16=
EXTT17=
EXTT18=
EXTT19=
EXTT20=
EXTT21=
PLAYORDER=
